#!OML:ASF H:\Terrain\Patient Classification 1\Walking\liu\liu.ASF
:FULLY-SPECIFIED
:DEGREES
116
root 8.24373 16.6285 -7.21749 9.11377 -1.20544 -3.26027
lowerback -4.56337 0.848217 1.20111
upperback -0.914055 1.01431 3.26264
thorax 1.58059 0.507564 2.74122
lowerneck -20.1346 -3.41484 -14.6348
upperneck 21.3688 -2.22688 8.32688
head 10.4498 -1.23045 5.11453
rclavicle -2.43511e-015 2.06736e-014
rhumerus -28.3992 17.9269 -87.8956
rradius 36.352
rwrist -17.1509
rhand -36.8053 -28.0856
rfingers 7.12502
rthumb -9.88681 -57.8334
lclavicle -2.43511e-015 2.06736e-014
lhumerus -38.7588 -15.8985 91.8351
lradius 34.4149
lwrist 9.89952
lhand -14.7323 -24.9444
lfingers 7.12502
lthumb 11.4229 4.72447
rfemur -10.4033 3.66468 30.52
rtibia 27.6531
rfoot -21.1644 4.75091
rtoes -13.2968
lfemur -40.1461 5.04944 -19.2887
ltibia 56.469
lfoot -19.5216 12.2934
ltoes -11.5647
117
root 8.24864 16.6367 -6.93199 9.17304 -1.70833 -3.50421
lowerback -4.59845 1.07309 1.4218
upperback -0.865198 1.29912 3.3349
thorax 1.64266 0.650454 2.70995
lowerneck -20.3857 -3.417 -14.2045
upperneck 21.4186 -2.16196 7.67074
head 10.496 -1.24056 4.80953
rclavicle -5.46658e-016 7.95139e-015
rhumerus -27.5192 19.1131 -87.9573
rradius 37.4381
rwrist -17.46
rhand -36.3049 -26.1584
rfingers 7.12502
rthumb -9.40398 -55.9286
lclavicle -5.46658e-016 7.95139e-015
lhumerus -40.0959 -16.7136 92.5161
lradius 34.0533
lwrist 10.2439
lhand -12.6979 -23.8521
lfingers 7.12502
lthumb 13.3844 5.69793
rfemur -8.8646 3.91402 30.7335
rtibia 26.5647
rfoot -20.5721 4.79996
rtoes -13.0393
lfemur -40.8601 4.59365 -18.8613
ltibia 53.2232
lfoot -19.6371 12.4585
ltoes -13.0541
118
root 8.25492 16.6366 -6.63798 9.23165 -2.14821 -3.77947
lowerback -4.83011 1.27198 1.78343
upperback -0.682277 1.52924 3.36962
thorax 1.96069 0.766449 2.56611
lowerneck -20.3626 -3.48591 -14.2957
upperneck 21.1591 -2.23289 7.69905
head 10.4082 -1.27013 4.81632
rclavicle -1.53561e-014 -4.77083e-015
rhumerus -26.5417 20.2628 -87.9322
rradius 38.7831
rwrist -17.7062
rhand -35.1867 -24.5037
rfingers 7.12502
rthumb -8.325 -54.3196
lclavicle -1.53561e-014 -4.77083e-015
lhumerus -41.0943 -16.654 92.6064
lradius 33.6726
lwrist 9.55501
lhand -8.3433 -21.479
lfingers 7.12502
lthumb 17.5785 7.74627
rfemur -7.25414 3.90693 30.9449
rtibia 25.475
rfoot -20.047 5.14377
rtoes -13.9173
lfemur -41.4141 4.23678 -18.3977
ltibia 49.8705
lfoot -19.4602 12.2705
ltoes -13.4741
119
root 8.26305 16.6409 -6.34374 9.31779 -2.52948 -3.98035
lowerback -5.09924 1.49796 2.13879
upperback -0.504055 1.79316 3.33151
thorax 2.29893 0.900816 2.3569
lowerneck -20.0397 -3.58326 -14.5408
upperneck 20.6424 -2.39541 7.96876
head 10.1882 -1.32329 4.91583
rclavicle -1.63997e-015 -1.59028e-014
rhumerus -25.508 21.5498 -87.9253
rradius 40.0807
rwrist -18.2913
rhand -35.3541 -26.1812
rfingers 7.12502
rthumb -8.48646 -55.9907
lclavicle -1.63997e-015 -1.59028e-014
lhumerus -42.0018 -16.5469 92.606
lradius 33.1836
lwrist 8.64998
lhand -6.50869 -20.5137
lfingers 7.12502
lthumb 19.3433 8.54426
rfemur -5.54246 3.9374 31.0569
rtibia 24.2845
rfoot -19.6483 5.21644
rtoes -17.1327
lfemur -41.9352 4.03406 -18.0629
ltibia 46.3982
lfoot -18.8896 12.1478
ltoes -15.8507
120
root 8.26956 16.6379 -6.05668 9.5385 -3.1271 -4.35379
lowerback -5.21811 1.73054 2.45143
upperback -0.555282 2.07866 3.44942
thorax 2.31251 1.04544 2.32691
lowerneck -19.9506 -3.56897 -14.5838
upperneck 20.6407 -2.33676 7.8124
head 10.1637 -1.31929 4.87298
rclavicle -2.39039e-014 -4.13472e-014
rhumerus -24.7787 23.2857 -88.0143
rradius 41.2769
rwrist -19.2401
rhand -36.5019 -27.5587
rfingers 7.12502
rthumb -9.5941 -57.3202
lclavicle -2.39039e-014 -4.13472e-014
lhumerus -43.1167 -15.984 92.5964
lradius 32.5602
lwrist 7.27553
lhand -7.44592 -22.1215
lfingers 7.12502
lthumb 18.4419 7.02432
rfemur -3.98165 3.88994 31.2472
rtibia 22.9765
rfoot -18.9105 5.7234
rtoes -17.1389
lfemur -42.6054 4.07128 -17.4787
ltibia 42.8863
lfoot -18.8666 11.6056
ltoes -15.9776
121
root 8.27446 16.6253 -5.77807 9.85906 -3.59744 -4.83621
lowerback -5.30173 1.89845 2.87387
upperback -0.677929 2.27471 3.61155
thorax 2.23854 1.14567 2.27256
lowerneck -20.1376 -3.52297 -14.6748
upperneck 20.8838 -2.2087 7.76883
head 10.271 -1.27693 4.8989
rclavicle 1.99282e-014 7.15625e-015
rhumerus -24.1669 24.7203 -87.9662
rradius 42.4831
rwrist -19.6711
rhand -36.2453 -25.6309
rfingers 7.12502
rthumb -9.34651 -55.4037
lclavicle 1.99282e-014 7.15625e-015
lhumerus -44.2795 -15.3115 92.4701
lradius 31.9428
lwrist 5.69677
lhand -11.4486 -25.0404
lfingers 7.12502
lthumb 14.5884 4.42651
rfemur -2.56906 4.03107 31.6
rtibia 21.5142
rfoot -17.7806 6.18078
rtoes -14.9232
lfemur -43.3653 3.87922 -16.6376
ltibia 39.3533
lfoot -18.5947 10.8949
ltoes -16.41
122
root 8.28963 16.6082 -5.48693 9.99349 -3.95701 -5.16749
lowerback -5.51333 2.08879 3.48583
upperback -0.596147 2.47634 3.54383
thorax 2.4669 1.25259 1.88734
lowerneck -20.4176 -3.5067 -14.5372
upperneck 21.0065 -2.19634 7.80073
head 10.3633 -1.2556 4.89512
rclavicle -2.89232e-014 -1.27222e-014
rhumerus -23.3657 25.6731 -87.8604
rradius 43.5746
rwrist -19.602
rhand -35.663 -22.9045
rfingers 7.12502
rthumb -8.78461 -52.7017
lclavicle -2.89232e-014 -1.27222e-014
lhumerus -45.3102 -15.1601 92.287
lradius 31.3692
lwrist 4.88707
lhand -8.8106 -24.018
lfingers 7.12502
lthumb 17.1287 5.24692
rfemur -0.802074 4.21637 31.8031
rtibia 19.8956
rfoot -16.632 6.46447
rtoes -13.2559
lfemur -43.7487 3.4584 -15.9108
ltibia 35.8807
lfoot -18.0449 9.8776
ltoes -16.897
123
root 8.30765 16.6024 -5.18502 10.0161 -4.43011 -5.42367
lowerback -5.653 2.23496 3.91593
upperback -0.50569 2.63085 3.50845
thorax 2.65884 1.33535 1.63263
lowerneck -20.5098 -3.3853 -13.8413
upperneck 20.9349 -2.07912 7.18287
head 10.3246 -1.21509 4.56562
rclavicle -4.42296e-015 -7.15625e-015
rhumerus -22.5487 26.9063 -87.8454
rradius 44.5339
rwrist -19.6611
rhand -35.8649 -21.8495
rfingers 7.12502
rthumb -8.97947 -51.6384
lclavicle -4.42296e-015 -7.15625e-015
lhumerus -46.4145 -14.8969 92.2824
lradius 30.7956
lwrist 4.97421
lhand -9.0872 -24.1146
lfingers 7.12502
lthumb 16.8625 5.17325
rfemur 1.20552 4.17824 31.8157
rtibia 18.1842
rfoot -15.4757 6.85457
rtoes -13.7402
lfemur -43.8135 3.04361 -15.209
ltibia 32.5428
lfoot -17.8407 8.53857
ltoes -15.2248
124
root 8.31979 16.6203 -4.88383 10.0213 -5.00646 -5.50513
lowerback -5.61345 2.33177 3.89343
upperback -0.527758 2.76195 3.60834
thorax 2.60814 1.39931 1.75648
lowerneck -20.3563 -3.21682 -13.4327
upperneck 20.7567 -1.85408 6.62386
head 10.1964 -1.14193 4.31915
rclavicle 8.10048e-015 8.74653e-015
rhumerus -21.8337 28.3739 -87.6621
rradius 45.5358
rwrist -19.8996
rhand -35.6157 -22.1423
rfingers 7.12502
rthumb -8.73893 -51.9414
lclavicle 8.10048e-015 8.74653e-015
lhumerus -47.5125 -14.2219 92.4235
lradius 29.9785
lwrist 4.87109
lhand -9.12361 -24.5326
lfingers 7.12502
lthumb 16.8274 4.75828
rfemur 3.18778 3.99569 31.5689
rtibia 16.4642
rfoot -14.1414 7.21103
rtoes -16.2652
lfemur -43.717 2.72995 -14.7241
ltibia 29.3678
lfoot -17.46 7.86754
ltoes -13.0295
125
root 8.3299 16.6321 -4.58494 10.0042 -5.58948 -5.41855
lowerback -5.59991 2.47642 3.83766
upperback -0.52594 2.96022 3.55173
thorax 2.60244 1.49761 1.74432
lowerneck -20.4975 -3.15913 -13.4594
upperneck 21.0182 -1.75757 6.65932
head 10.3064 -1.10127 4.35859
rclavicle -2.75814e-014 -5.56597e-015
rhumerus -21.1382 29.5357 -87.474
rradius 46.5992
rwrist -20.1165
rhand -35.3692 -22.3945
rfingers 7.12502
rthumb -8.5011 -52.2033
lclavicle -2.75814e-014 -5.56597e-015
lhumerus -48.3192 -13.3944 92.0705
lradius 28.947
lwrist 3.71409
lhand -8.58197 -25.2081
lfingers 7.12502
lthumb 17.3488 4.0376
rfemur 5.12671 3.50466 31.0706
rtibia 14.7036
rfoot -12.5328 7.76008
rtoes -18.2987
lfemur -43.5421 2.26544 -14.3451
ltibia 26.4411
lfoot -17.0419 8.41438
ltoes -12.966
126
root 8.33918 16.6221 -4.29043 9.9975 -5.98654 -5.48507
lowerback -5.61328 2.58285 4.04031
upperback -0.470015 3.08831 3.42849
thorax 2.68524 1.5648 1.51763
lowerneck -20.6673 -3.09924 -13.1999
upperneck 21.1478 -1.71895 6.59384
head 10.376 -1.0718 4.30171
rclavicle -2.127e-014 -2.94201e-014
rhumerus -20.2552 30.3763 -87.4291
rradius 47.3606
rwrist -20.0879
rhand -35.4432 -22.7954
rfingers 7.12502
rthumb -8.57248 -52.6014
lclavicle -2.127e-014 -2.94201e-014
lhumerus -49.1328 -12.8258 91.6359
lradius 28.1712
lwrist 3.13106
lhand -8.9603 -25.901
lfingers 7.12502
lthumb 16.9847 3.3764
rfemur 7.0584 2.90049 30.7483
rtibia 12.8552
rfoot -10.7175 8.32355
rtoes -19.5505
lfemur -43.4692 1.2799 -13.4293
ltibia 23.8981
lfoot -17.0924 9.46183
ltoes -14.6448
